<mxfile host="app.diagrams.net" agent="Mozilla/5.0 (X11; Linux x86_64) AppleWebKit/537.36 (KHTML, like Gecko) Chrome/129.0.0.0 Safari/537.36" version="24.7.17">
  <diagram name="Trang-1" id="d5DPxuk87gA9cyL0QdOh">
    <mxGraphModel dx="810" dy="481" grid="1" gridSize="10" guides="1" tooltips="1" connect="1" arrows="1" fold="1" page="1" pageScale="1" pageWidth="827" pageHeight="1169" math="0" shadow="0">
      <root>
        <mxCell id="0" />
        <mxCell id="1" parent="0" />
        <mxCell id="yfWzdDoWOIml6qprFiX3-4" style="edgeStyle=orthogonalEdgeStyle;rounded=0;orthogonalLoop=1;jettySize=auto;html=1;entryX=0.5;entryY=0;entryDx=0;entryDy=0;" edge="1" parent="1" source="yfWzdDoWOIml6qprFiX3-2" target="yfWzdDoWOIml6qprFiX3-3">
          <mxGeometry relative="1" as="geometry" />
        </mxCell>
        <mxCell id="yfWzdDoWOIml6qprFiX3-2" value="start" style="ellipse;whiteSpace=wrap;html=1;" vertex="1" parent="1">
          <mxGeometry x="415" y="40" width="120" height="80" as="geometry" />
        </mxCell>
        <mxCell id="yfWzdDoWOIml6qprFiX3-5" value="yes" style="edgeStyle=orthogonalEdgeStyle;rounded=0;orthogonalLoop=1;jettySize=auto;html=1;" edge="1" parent="1" source="yfWzdDoWOIml6qprFiX3-3" target="yfWzdDoWOIml6qprFiX3-6">
          <mxGeometry relative="1" as="geometry">
            <mxPoint x="300" y="230" as="targetPoint" />
          </mxGeometry>
        </mxCell>
        <mxCell id="yfWzdDoWOIml6qprFiX3-10" value="no" style="edgeStyle=orthogonalEdgeStyle;rounded=0;orthogonalLoop=1;jettySize=auto;html=1;entryX=0;entryY=0.5;entryDx=0;entryDy=0;" edge="1" parent="1" source="yfWzdDoWOIml6qprFiX3-3" target="yfWzdDoWOIml6qprFiX3-9">
          <mxGeometry relative="1" as="geometry" />
        </mxCell>
        <mxCell id="yfWzdDoWOIml6qprFiX3-3" value="structured data" style="rhombus;whiteSpace=wrap;html=1;" vertex="1" parent="1">
          <mxGeometry x="430" y="190" width="90" height="80" as="geometry" />
        </mxCell>
        <mxCell id="yfWzdDoWOIml6qprFiX3-7" value="yes" style="edgeStyle=orthogonalEdgeStyle;rounded=0;orthogonalLoop=1;jettySize=auto;html=1;" edge="1" parent="1" source="yfWzdDoWOIml6qprFiX3-6" target="yfWzdDoWOIml6qprFiX3-8">
          <mxGeometry relative="1" as="geometry">
            <mxPoint x="300" y="350" as="targetPoint" />
          </mxGeometry>
        </mxCell>
        <mxCell id="yfWzdDoWOIml6qprFiX3-6" value="Need ACID" style="rhombus;whiteSpace=wrap;html=1;" vertex="1" parent="1">
          <mxGeometry x="260" y="190" width="80" height="80" as="geometry" />
        </mxCell>
        <mxCell id="yfWzdDoWOIml6qprFiX3-8" value="RDBMS" style="rounded=0;whiteSpace=wrap;html=1;" vertex="1" parent="1">
          <mxGeometry x="240" y="370" width="120" height="60" as="geometry" />
        </mxCell>
        <mxCell id="yfWzdDoWOIml6qprFiX3-12" value="yes" style="edgeStyle=orthogonalEdgeStyle;rounded=0;orthogonalLoop=1;jettySize=auto;html=1;" edge="1" parent="1" source="yfWzdDoWOIml6qprFiX3-9" target="yfWzdDoWOIml6qprFiX3-11">
          <mxGeometry relative="1" as="geometry" />
        </mxCell>
        <mxCell id="yfWzdDoWOIml6qprFiX3-14" value="" style="edgeStyle=orthogonalEdgeStyle;rounded=0;orthogonalLoop=1;jettySize=auto;html=1;" edge="1" parent="1" source="yfWzdDoWOIml6qprFiX3-9" target="yfWzdDoWOIml6qprFiX3-13">
          <mxGeometry relative="1" as="geometry" />
        </mxCell>
        <mxCell id="yfWzdDoWOIml6qprFiX3-9" value="+ Data types&lt;div&gt;+ queries&lt;/div&gt;" style="rhombus;whiteSpace=wrap;html=1;" vertex="1" parent="1">
          <mxGeometry x="630" y="180" width="100" height="100" as="geometry" />
        </mxCell>
        <mxCell id="yfWzdDoWOIml6qprFiX3-11" value="Document DB&lt;br&gt;(MongoDB, CouchDB)" style="whiteSpace=wrap;html=1;" vertex="1" parent="1">
          <mxGeometry x="620" y="370" width="120" height="60" as="geometry" />
        </mxCell>
        <mxCell id="yfWzdDoWOIml6qprFiX3-17" value="" style="edgeStyle=orthogonalEdgeStyle;rounded=0;orthogonalLoop=1;jettySize=auto;html=1;" edge="1" parent="1" source="yfWzdDoWOIml6qprFiX3-13" target="yfWzdDoWOIml6qprFiX3-16">
          <mxGeometry relative="1" as="geometry" />
        </mxCell>
        <mxCell id="yfWzdDoWOIml6qprFiX3-13" value="+ Ever-increasing data&lt;br&gt;+ Finite queries" style="rhombus;whiteSpace=wrap;html=1;" vertex="1" parent="1">
          <mxGeometry x="870" y="175" width="160" height="110" as="geometry" />
        </mxCell>
        <mxCell id="yfWzdDoWOIml6qprFiX3-15" value="&lt;b&gt;Data types:&lt;/b&gt; various type of data, such as in an ecomerce platform there are shirts, milks that have their own attributes&lt;br&gt;&lt;b&gt;Queries: &lt;/b&gt;variety of query" style="text;html=1;align=left;verticalAlign=middle;whiteSpace=wrap;rounded=0;" vertex="1" parent="1">
          <mxGeometry x="610" y="460" width="160" height="100" as="geometry" />
        </mxCell>
        <mxCell id="yfWzdDoWOIml6qprFiX3-16" value="Columnar DB&lt;br&gt;(Cassandra, HBase)" style="whiteSpace=wrap;html=1;" vertex="1" parent="1">
          <mxGeometry x="890" y="370" width="120" height="60" as="geometry" />
        </mxCell>
        <mxCell id="yfWzdDoWOIml6qprFiX3-18" value="&lt;b&gt;Ever-increasing data&lt;/b&gt; like Uber system. Drivers will constantly send their positions to the server&lt;br&gt;&lt;b&gt;Finite queries: &lt;/b&gt;basic and simple queries" style="text;html=1;align=left;verticalAlign=middle;whiteSpace=wrap;rounded=0;" vertex="1" parent="1">
          <mxGeometry x="870" y="446" width="180" height="110" as="geometry" />
        </mxCell>
      </root>
    </mxGraphModel>
  </diagram>
</mxfile>
